<svg width="74" height="68" viewBox="0 0 74 68" fill="none" xmlns="http://www.w3.org/2000/svg">
<path d="M44.7533 5.6626H29.2235C23.7425 5.6626 22.5245 8.21073 21.8241 11.3534L19.3271 22.4517H54.6497L52.1527 11.3534C51.4523 8.21073 50.2343 5.6626 44.7533 5.6626Z" stroke="#216900" stroke-width="5.93165" stroke-linecap="round" stroke-linejoin="round"/>
<path d="M59.0343 40.5433C59.2779 42.9498 57.2072 45.0166 54.5581 45.0166H50.4168C48.0417 45.0166 47.7067 44.0823 47.2804 42.8932L46.8236 41.6756C46.2146 40.0052 45.8188 38.8728 42.6215 38.8728H31.3244C28.1575 38.8728 27.6703 40.1468 27.1222 41.6756L26.6654 42.8932C26.2391 44.054 25.9042 45.0166 23.5291 45.0166H19.3878C16.7386 45.0166 14.668 42.9498 14.9116 40.5433L16.1601 28.0293C16.4646 24.9432 17.104 22.4233 22.8896 22.4233H51.0562C56.8418 22.4233 57.4813 24.9432 57.7858 28.0293L59.0343 40.5433Z" stroke="#216900" stroke-width="5.93165" stroke-linecap="round" stroke-linejoin="round"/>
<path d="M19.3274 16.2798H17.1045" stroke="#216900" stroke-width="5.93165" stroke-linecap="round" stroke-linejoin="round"/>
<path d="M56.8723 16.2798H54.6494" stroke="#216900" stroke-width="5.93165" stroke-linecap="round" stroke-linejoin="round"/>
<path d="M23.7422 30.6626H30.35" stroke="#216900" stroke-width="5.93165" stroke-linecap="round" stroke-linejoin="round"/>
<path d="M43.6265 30.6626H50.2342" stroke="#216900" stroke-width="5.93165" stroke-linecap="round" stroke-linejoin="round"/>
<path d="M36.9883 48.1309V50.9621" stroke="#216900" stroke-width="5.93165" stroke-linecap="round" stroke-linejoin="round"/>
<path d="M36.9883 59.4556V62.2868" stroke="#216900" stroke-width="5.93165" stroke-linecap="round" stroke-linejoin="round"/>
<path d="M9.58313 50.9624L6.53809 62.2873" stroke="#216900" stroke-width="5.93165" stroke-linecap="round" stroke-linejoin="round"/>
<path d="M64.394 50.9624L67.4391 62.2873" stroke="#216900" stroke-width="5.93165" stroke-linecap="round" stroke-linejoin="round"/>
</svg>
