<svg width="118" height="74" viewBox="0 0 118 74" fill="none" xmlns="http://www.w3.org/2000/svg">
<path d="M109.593 10.468C102.709 11.0608 93.6589 20.6623 84.9341 26.1826C74.2317 32.9484 57.5805 27.5089 57.5773 27.5089C60.1447 25.8257 70.5873 22.3527 72.6919 21.0646C83.8672 14.195 82.9159 -0.116306 77.5943 0.00071327C70.5655 0.165357 66.4336 2.57604 52.3992 5.24798C41.7631 7.26725 29.1857 6.52839 23.1511 9.74596C14.6339 14.2898 0.919434 44.8558 0.919434 44.8558L22.1332 73.56C22.1332 73.56 35.2631 55.5005 41.651 55.5005C56.2083 55.5005 56.7923 55.2261 70.3099 54.2019C76.0629 53.772 77.2623 53.4422 80.5476 51.8947C98.0728 43.6208 116.885 21.588 117.231 18.9361C118.036 12.7975 113.224 10.1514 109.593 10.468Z" fill="#216900"/>
</svg>
