<svg width="63" height="79" viewBox="0 0 63 79" fill="none" xmlns="http://www.w3.org/2000/svg">
<path d="M55.4733 58.7436C57.9427 60.4969 59.2427 62.4857 59.2427 64.5102C59.2427 66.5346 57.9427 68.5235 55.4733 70.2767C53.004 72.03 49.4523 73.4859 45.1753 74.4981C40.8983 75.5104 36.0466 76.0433 31.1079 76.0433C26.1692 76.0433 21.3176 75.5104 17.0405 74.4981C12.7635 73.4859 9.21183 72.03 6.74249 70.2767C4.27315 68.5235 2.97315 66.5346 2.97314 64.5102C2.97314 62.4857 4.27315 60.4969 6.74249 58.7436" stroke="#216900" stroke-width="5.71725" stroke-linecap="round"/>
<path d="M55.9318 31.8328C55.9318 52.3958 35.2909 65.8245 31.6518 68.0323C31.3102 68.2395 30.9039 68.2395 30.5623 68.0323C26.9231 65.8245 6.28223 52.3958 6.28223 31.8328C6.28223 14.5331 18.3107 3 31.107 3C44.3469 3 55.9318 14.5331 55.9318 31.8328Z" stroke="#216900" stroke-width="5.71725"/>
<path d="M41.4893 31.833C41.4893 39.1635 36.4549 44.3519 31.1081 44.3519C25.7612 44.3519 20.7268 39.1635 20.7268 31.833C20.7268 24.5026 25.7612 19.3142 31.1081 19.3142C36.4549 19.3142 41.4893 24.5026 41.4893 31.833Z" stroke="#216900" stroke-width="5.71725"/>
</svg>
