<svg width="61" height="61" viewBox="0 0 61 61" fill="none" xmlns="http://www.w3.org/2000/svg">
<mask id="mask0_1133_213" style="mask-type:alpha" maskUnits="userSpaceOnUse" x="0" y="0" width="61" height="61">
<rect x="0.5" y="0.286133" width="60" height="60" fill="#D9D9D9"/>
</mask>
<g mask="url(#mask0_1133_213)">
<path d="M30.9856 51.5821H33.3563V47.9471C35.5163 47.8417 37.6631 47.091 39.7967 45.6949C41.9303 44.2988 42.9971 42.0994 42.9971 39.0965C42.9971 36.8838 42.3123 35.04 40.9425 33.5649C39.5728 32.0898 36.9914 30.6674 33.1983 29.2976C29.6159 28.0333 27.3769 26.9533 26.4813 26.0577C25.5857 25.1621 25.1379 23.8714 25.1379 22.1856C25.1379 20.4997 25.8096 19.0773 27.153 17.9183C28.4964 16.7593 30.2481 16.1798 32.408 16.1798C33.9885 16.1798 35.3319 16.5354 36.4382 17.2466C37.5445 17.9578 38.4665 18.8666 39.204 19.9729L41.2586 19.1827C40.4684 17.7603 39.3752 16.5881 37.9792 15.6662C36.5831 14.7442 35.0948 14.2306 33.5144 14.1252V10.4902H31.1437V14.1252C28.3515 14.5467 26.2574 15.5345 24.8614 17.0886C23.4653 18.6427 22.7672 20.3417 22.7672 22.1856C22.7672 24.3982 23.4784 26.163 24.9009 27.4801C26.3233 28.7971 28.773 30.0879 32.25 31.3522C35.6743 32.6166 37.9528 33.7624 39.0855 34.7897C40.2182 35.817 40.7845 37.2526 40.7845 39.0965C40.7845 41.4672 39.9152 43.1662 38.1767 44.1935C36.4382 45.2208 34.6207 45.7344 32.7241 45.7344C30.8803 45.7344 29.2076 45.2076 27.7062 44.154C26.2047 43.1003 24.9799 41.6252 24.0316 39.7287L21.977 40.6769C22.9253 42.7315 24.1501 44.312 25.6516 45.4183C27.153 46.5246 28.931 47.3149 30.9856 47.789V51.5821ZM32.25 58.5361C28.4569 58.5361 24.8877 57.8118 21.5424 56.363C18.1971 54.9142 15.2864 52.9518 12.8103 50.4758C10.3343 47.9997 8.37189 45.0891 6.92313 41.7438C5.47438 38.3984 4.75 34.8292 4.75 31.0361C4.75 27.243 5.47438 23.6738 6.92313 20.3285C8.37189 16.9832 10.3343 14.0725 12.8103 11.5965C15.2864 9.12042 18.1971 7.15802 21.5424 5.70926C24.8877 4.26051 28.4569 3.53613 32.25 3.53613C36.0431 3.53613 39.6123 4.26051 42.9576 5.70926C46.3029 7.15802 49.2136 9.12042 51.6897 11.5965C54.1657 14.0725 56.1281 16.9832 57.5769 20.3285C59.0256 23.6738 59.75 27.243 59.75 31.0361C59.75 34.8292 59.0256 38.3984 57.5769 41.7438C56.1281 45.0891 54.1657 47.9997 51.6897 50.4758C49.2136 52.9518 46.3029 54.9142 42.9576 56.363C39.6123 57.8118 36.0431 58.5361 32.25 58.5361ZM32.25 56.3235C39.3094 56.3235 45.2888 53.8738 50.1882 48.9744C55.0876 44.0749 57.5374 38.0955 57.5374 31.0361C57.5374 23.9767 55.0876 17.9973 50.1882 13.0979C45.2888 8.19849 39.3094 5.74878 32.25 5.74878C25.1906 5.74878 19.2112 8.19849 14.3118 13.0979C9.41236 17.9973 6.96264 23.9767 6.96264 31.0361C6.96264 38.0955 9.41236 44.0749 14.3118 48.9744C19.2112 53.8738 25.1906 56.3235 32.25 56.3235Z" fill="#1C1B1F"/>
</g>
</svg>
