<svg width="66" height="63" viewBox="0 0 66 63" fill="none" xmlns="http://www.w3.org/2000/svg">
<path d="M49.5002 19.2021C49.3352 19.1761 49.1427 19.1761 48.9777 19.2021C45.1827 19.0721 42.1577 16.1341 42.1577 12.4941C42.1577 8.77614 45.3202 5.78613 49.2527 5.78613C53.1852 5.78613 56.3477 8.80214 56.3477 12.4941C56.3202 16.1341 53.2952 19.0721 49.5002 19.2021Z" stroke="#585858" stroke-width="2.4" stroke-linecap="round" stroke-linejoin="round"/>
<path d="M46.6675 38.1301C50.435 38.7281 54.5875 38.1041 57.5025 36.2581C61.38 33.8141 61.38 29.8101 57.5025 27.3661C54.56 25.5201 50.3525 24.896 46.585 25.52" stroke="#585858" stroke-width="2.4" stroke-linecap="round" stroke-linejoin="round"/>
<path d="M16.4168 19.2021C16.5818 19.1761 16.7743 19.1761 16.9393 19.2021C20.7343 19.0721 23.7593 16.1341 23.7593 12.4941C23.7593 8.77614 20.5968 5.78613 16.6643 5.78613C12.7318 5.78613 9.56934 8.80214 9.56934 12.4941C9.59684 16.1341 12.6218 19.0721 16.4168 19.2021Z" stroke="#585858" stroke-width="2.4" stroke-linecap="round" stroke-linejoin="round"/>
<path d="M19.25 38.1301C15.4825 38.7281 11.33 38.1041 8.41496 36.2581C4.53746 33.8141 4.53746 29.8101 8.41496 27.3661C11.3575 25.5201 15.565 24.896 19.3325 25.52" stroke="#585858" stroke-width="2.4" stroke-linecap="round" stroke-linejoin="round"/>
<path d="M33.0002 38.6235C32.8352 38.5975 32.6427 38.5975 32.4777 38.6235C28.6827 38.4935 25.6577 35.5555 25.6577 31.9155C25.6577 28.1975 28.8202 25.2075 32.7527 25.2075C36.6852 25.2075 39.8477 28.2235 39.8477 31.9155C39.8202 35.5555 36.7952 38.5195 33.0002 38.6235Z" stroke="#585858" stroke-width="2.4" stroke-linecap="round" stroke-linejoin="round"/>
<path d="M24.9975 46.8131C21.12 49.2571 21.12 53.2611 24.9975 55.7051C29.3975 58.4871 36.6025 58.4871 41.0025 55.7051C44.88 53.2611 44.88 49.2571 41.0025 46.8131C36.63 44.0571 29.3975 44.0571 24.9975 46.8131Z" stroke="#585858" stroke-width="2.4" stroke-linecap="round" stroke-linejoin="round"/>
</svg>
